<?xml version="1.0" encoding="UTF-8"?>
<svg xmlns="http://www.w3.org/2000/svg" xmlns:xlink="http://www.w3.org/1999/xlink" width="14px" height="14px" viewBox="0 0 14 14" version="1.1">
<g id="surface1">
<path style=" stroke:none;fill-rule:nonzero;fill:rgb(0%,0%,0%);fill-opacity:1;" d="M 9.953125 6.546875 C 10.304688 6.089844 10.496094 5.535156 10.5 4.957031 C 10.5 3.511719 9.320312 2.332031 7.875 2.332031 L 3.5 2.332031 L 3.5 11.082031 L 8.167969 11.082031 C 9.613281 11.082031 10.792969 9.90625 10.792969 8.457031 C 10.789062 7.730469 10.484375 7.039062 9.953125 6.546875 Z M 7.875 4.082031 C 8.355469 4.082031 8.75 4.476562 8.75 4.957031 C 8.75 5.441406 8.355469 5.832031 7.875 5.832031 L 5.25 5.832031 L 5.25 4.082031 Z M 8.167969 9.332031 L 5.25 9.332031 L 5.25 7.582031 L 8.167969 7.582031 C 8.648438 7.582031 9.042969 7.976562 9.042969 8.457031 C 9.042969 8.941406 8.648438 9.332031 8.167969 9.332031 Z M 8.167969 9.332031 "/>
</g>
</svg>
