<?xml version="1.0" encoding="UTF-8"?>
<svg xmlns="http://www.w3.org/2000/svg" xmlns:xlink="http://www.w3.org/1999/xlink" width="14px" height="14px" viewBox="0 0 14 14" version="1.1">
<g id="surface1">
<path style=" stroke:none;fill-rule:nonzero;fill:rgb(0%,0%,0%);fill-opacity:1;" d="M 11.667969 6.417969 L 7 6.417969 C 4.667969 6.417969 4.667969 5.355469 4.667969 4.957031 C 4.667969 4.597656 4.667969 3.5 7 3.5 C 8.632812 3.5 8.746094 4.480469 8.75 4.675781 L 9.332031 4.667969 L 9.917969 4.667969 C 9.917969 3.859375 9.308594 2.332031 7 2.332031 C 3.839844 2.332031 3.5 4.167969 3.5 4.957031 C 3.5 5.382812 3.585938 5.929688 3.929688 6.417969 L 2.332031 6.417969 L 2.332031 7.582031 L 11.667969 7.582031 Z M 7 10.5 C 4.789062 10.5 4.671875 9.441406 4.667969 9.332031 L 3.5 9.332031 C 3.5 9.355469 3.539062 11.667969 7 11.667969 C 10.046875 11.667969 10.5 10.023438 10.5 9.042969 C 10.5 8.957031 10.496094 8.855469 10.484375 8.75 L 9.3125 8.75 C 9.332031 8.867188 9.332031 8.96875 9.332031 9.042969 C 9.332031 9.441406 9.332031 10.5 7 10.5 Z M 7 10.5 "/>
</g>
</svg>
